<mxfile host="65bd71144e">
    <diagram id="TNPkE5ZQSRQPP_Q--AWW" name="Page-1">
        <mxGraphModel dx="1168" dy="917" grid="1" gridSize="10" guides="1" tooltips="1" connect="1" arrows="1" fold="1" page="1" pageScale="1" pageWidth="1200" pageHeight="1920" math="0" shadow="0">
            <root>
                <mxCell id="0"/>
                <mxCell id="1" parent="0"/>
                <mxCell id="2" value="Qulitative requirements" style="swimlane;startSize=20;horizontal=0;childLayout=treeLayout;horizontalTree=1;resizable=0;containerType=tree;" vertex="1" parent="1">
                    <mxGeometry x="50" y="140" width="590" height="880" as="geometry"/>
                </mxCell>
                <mxCell id="3" value="The user's point of view" style="whiteSpace=wrap;html=1;" vertex="1" parent="2">
                    <mxGeometry x="40" y="420" width="100" height="40" as="geometry"/>
                </mxCell>
                <mxCell id="4" value="Who" style="whiteSpace=wrap;html=1;fillColor=#999999;fontStyle=1;fontColor=#FFFFFF;" vertex="1" parent="2">
                    <mxGeometry x="190" y="100" width="100" height="40" as="geometry"/>
                </mxCell>
                <mxCell id="5" value="" style="edgeStyle=elbowEdgeStyle;elbow=horizontal;html=1;rounded=0;" edge="1" parent="2" source="3" target="4">
                    <mxGeometry relative="1" as="geometry"/>
                </mxCell>
                <mxCell id="8" value="" style="edgeStyle=elbowEdgeStyle;elbow=horizontal;html=1;rounded=0;" edge="1" target="9" source="3" parent="2">
                    <mxGeometry relative="1" as="geometry">
                        <mxPoint x="190" y="-980" as="sourcePoint"/>
                    </mxGeometry>
                </mxCell>
                <mxCell id="9" value="What" style="whiteSpace=wrap;html=1;fillColor=#999999;fontStyle=1;fontColor=#FFFFFF;" vertex="1" parent="2">
                    <mxGeometry x="190" y="300" width="100" height="40" as="geometry"/>
                </mxCell>
                <mxCell id="10" value="" style="edgeStyle=elbowEdgeStyle;elbow=horizontal;html=1;rounded=0;" edge="1" target="11" source="3" parent="2">
                    <mxGeometry relative="1" as="geometry">
                        <mxPoint x="190" y="-940" as="sourcePoint"/>
                    </mxGeometry>
                </mxCell>
                <mxCell id="11" value="Why" style="whiteSpace=wrap;html=1;fillColor=#999999;fontStyle=1;fontColor=#FFFFFF;" vertex="1" parent="2">
                    <mxGeometry x="190" y="420" width="100" height="40" as="geometry"/>
                </mxCell>
                <mxCell id="12" value="" style="edgeStyle=elbowEdgeStyle;elbow=horizontal;html=1;rounded=0;" edge="1" target="13" source="3" parent="2">
                    <mxGeometry relative="1" as="geometry">
                        <mxPoint x="190" y="-860" as="sourcePoint"/>
                    </mxGeometry>
                </mxCell>
                <mxCell id="13" value="When" style="whiteSpace=wrap;html=1;fillColor=#999999;fontStyle=1;fontColor=#FFFFFF;" vertex="1" parent="2">
                    <mxGeometry x="190" y="540" width="100" height="40" as="geometry"/>
                </mxCell>
                <mxCell id="14" value="" style="edgeStyle=elbowEdgeStyle;elbow=horizontal;html=1;rounded=0;" edge="1" target="15" source="3" parent="2">
                    <mxGeometry relative="1" as="geometry">
                        <mxPoint x="190" y="-740" as="sourcePoint"/>
                    </mxGeometry>
                </mxCell>
                <mxCell id="15" value="How" style="whiteSpace=wrap;html=1;fillColor=#999999;fontStyle=1;fontColor=#FFFFFF;" vertex="1" parent="2">
                    <mxGeometry x="190" y="740" width="100" height="40" as="geometry"/>
                </mxCell>
                <mxCell id="16" value="" style="edgeStyle=elbowEdgeStyle;elbow=horizontal;html=1;rounded=0;" edge="1" target="17" source="4" parent="2">
                    <mxGeometry relative="1" as="geometry">
                        <mxPoint x="190" y="-580" as="sourcePoint"/>
                    </mxGeometry>
                </mxCell>
                <mxCell id="17" value="Who are the users" style="whiteSpace=wrap;html=1;fillColor=#999999;fontStyle=1;fontColor=#FFFFFF;" vertex="1" parent="2">
                    <mxGeometry x="340" y="20" width="230" height="40" as="geometry"/>
                </mxCell>
                <mxCell id="18" value="" style="edgeStyle=elbowEdgeStyle;elbow=horizontal;html=1;rounded=0;" edge="1" target="19" source="4" parent="2">
                    <mxGeometry relative="1" as="geometry">
                        <mxPoint x="340" y="-740" as="sourcePoint"/>
                    </mxGeometry>
                </mxCell>
                <mxCell id="19" value="Who are the developers" style="whiteSpace=wrap;html=1;fillColor=#999999;fontStyle=1;fontColor=#FFFFFF;" vertex="1" parent="2">
                    <mxGeometry x="340" y="100" width="230" height="40" as="geometry"/>
                </mxCell>
                <mxCell id="20" value="" style="edgeStyle=elbowEdgeStyle;elbow=horizontal;html=1;rounded=0;" edge="1" target="21" source="4" parent="2">
                    <mxGeometry relative="1" as="geometry">
                        <mxPoint x="340" y="-540" as="sourcePoint"/>
                    </mxGeometry>
                </mxCell>
                <mxCell id="21" value="Who are the stakeholders" style="whiteSpace=wrap;html=1;fillColor=#999999;fontStyle=1;fontColor=#FFFFFF;" vertex="1" parent="2">
                    <mxGeometry x="340" y="180" width="230" height="40" as="geometry"/>
                </mxCell>
                <mxCell id="22" value="" style="edgeStyle=elbowEdgeStyle;elbow=horizontal;html=1;rounded=0;" edge="1" target="23" source="9" parent="2">
                    <mxGeometry relative="1" as="geometry">
                        <mxPoint x="190" y="-92" as="sourcePoint"/>
                    </mxGeometry>
                </mxCell>
                <mxCell id="23" value="What does the system do" style="whiteSpace=wrap;html=1;fillColor=#999999;fontStyle=1;fontColor=#FFFFFF;" vertex="1" parent="2">
                    <mxGeometry x="340" y="260" width="230" height="40" as="geometry"/>
                </mxCell>
                <mxCell id="24" value="" style="edgeStyle=elbowEdgeStyle;elbow=horizontal;html=1;rounded=0;" edge="1" target="25" source="9" parent="2">
                    <mxGeometry relative="1" as="geometry">
                        <mxPoint x="340" y="-132" as="sourcePoint"/>
                    </mxGeometry>
                </mxCell>
                <mxCell id="25" value="What are the main features" style="whiteSpace=wrap;html=1;fillColor=#999999;fontStyle=1;fontColor=#FFFFFF;" vertex="1" parent="2">
                    <mxGeometry x="340" y="340" width="230" height="40" as="geometry"/>
                </mxCell>
                <mxCell id="26" value="" style="edgeStyle=elbowEdgeStyle;elbow=horizontal;html=1;rounded=0;" edge="1" target="27" source="11" parent="2">
                    <mxGeometry relative="1" as="geometry">
                        <mxPoint x="190" y="224" as="sourcePoint"/>
                    </mxGeometry>
                </mxCell>
                <mxCell id="27" value="Why is the system needed" style="whiteSpace=wrap;html=1;fillColor=#999999;fontStyle=1;fontColor=#FFFFFF;" vertex="1" parent="2">
                    <mxGeometry x="340" y="420" width="230" height="40" as="geometry"/>
                </mxCell>
                <mxCell id="28" value="" style="edgeStyle=elbowEdgeStyle;elbow=horizontal;html=1;rounded=0;" edge="1" target="29" source="13" parent="2">
                    <mxGeometry relative="1" as="geometry">
                        <mxPoint x="190" y="224" as="sourcePoint"/>
                    </mxGeometry>
                </mxCell>
                <mxCell id="29" value="When do the users need and/or want the solution" style="whiteSpace=wrap;html=1;fillColor=#999999;fontStyle=1;fontColor=#FFFFFF;" vertex="1" parent="2">
                    <mxGeometry x="340" y="500" width="230" height="40" as="geometry"/>
                </mxCell>
                <mxCell id="30" value="" style="edgeStyle=elbowEdgeStyle;elbow=horizontal;html=1;rounded=0;" edge="1" target="31" source="13" parent="2">
                    <mxGeometry relative="1" as="geometry">
                        <mxPoint x="340" y="384" as="sourcePoint"/>
                    </mxGeometry>
                </mxCell>
                <mxCell id="31" value="When can the developers be done" style="whiteSpace=wrap;html=1;fillColor=#999999;fontStyle=1;fontColor=#FFFFFF;" vertex="1" parent="2">
                    <mxGeometry x="340" y="580" width="230" height="40" as="geometry"/>
                </mxCell>
                <mxCell id="32" value="" style="edgeStyle=elbowEdgeStyle;elbow=horizontal;html=1;rounded=0;" edge="1" target="33" source="15" parent="2">
                    <mxGeometry relative="1" as="geometry">
                        <mxPoint x="190" y="580" as="sourcePoint"/>
                    </mxGeometry>
                </mxCell>
                <mxCell id="33" value="How will the system work" style="whiteSpace=wrap;html=1;fillColor=#999999;fontStyle=1;fontColor=#FFFFFF;" vertex="1" parent="2">
                    <mxGeometry x="340" y="660" width="230" height="40" as="geometry"/>
                </mxCell>
                <mxCell id="34" value="" style="edgeStyle=elbowEdgeStyle;elbow=horizontal;html=1;rounded=0;" edge="1" target="35" source="15" parent="2">
                    <mxGeometry relative="1" as="geometry">
                        <mxPoint x="340" y="860" as="sourcePoint"/>
                    </mxGeometry>
                </mxCell>
                <mxCell id="35" value="How many user will be there" style="whiteSpace=wrap;html=1;fillColor=#999999;fontStyle=1;fontColor=#FFFFFF;" vertex="1" parent="2">
                    <mxGeometry x="340" y="740" width="230" height="40" as="geometry"/>
                </mxCell>
                <mxCell id="36" value="" style="edgeStyle=elbowEdgeStyle;elbow=horizontal;html=1;rounded=0;" edge="1" target="37" source="15" parent="2">
                    <mxGeometry relative="1" as="geometry">
                        <mxPoint x="340" y="880" as="sourcePoint"/>
                    </mxGeometry>
                </mxCell>
                <mxCell id="37" value="How much data will there be" style="whiteSpace=wrap;html=1;fillColor=#999999;fontStyle=1;fontColor=#FFFFFF;" vertex="1" parent="2">
                    <mxGeometry x="340" y="820" width="230" height="40" as="geometry"/>
                </mxCell>
                <mxCell id="38" value="" style="swimlane;startSize=20;horizontal=0;childLayout=treeLayout;horizontalTree=1;resizable=0;containerType=tree;fontColor=#FFFFFF;fillColor=#999999;" vertex="1" parent="1">
                    <mxGeometry x="50" y="1100" width="520" height="160" as="geometry"/>
                </mxCell>
                <mxCell id="39" value="&lt;b&gt;Roles&lt;/b&gt;" style="whiteSpace=wrap;html=1;fontColor=#FFFFFF;fillColor=#999999;" vertex="1" parent="38">
                    <mxGeometry x="40" y="60" width="100" height="40" as="geometry"/>
                </mxCell>
                <mxCell id="40" value="Roles represent the goal of a user at some point" style="whiteSpace=wrap;html=1;fontColor=#FFFFFF;fillColor=#000000;fontStyle=1" vertex="1" parent="38">
                    <mxGeometry x="190" y="20" width="310" height="40" as="geometry"/>
                </mxCell>
                <mxCell id="41" value="" style="edgeStyle=elbowEdgeStyle;elbow=horizontal;html=1;rounded=0;fontColor=#FFFFFF;" edge="1" parent="38" source="39" target="40">
                    <mxGeometry relative="1" as="geometry"/>
                </mxCell>
                <mxCell id="42" value="Child 2" style="whiteSpace=wrap;html=1;fontColor=#FFFFFF;fillColor=#999999;" vertex="1" parent="38">
                    <mxGeometry x="190" y="100" width="310" height="40" as="geometry"/>
                </mxCell>
                <mxCell id="43" value="" style="edgeStyle=elbowEdgeStyle;elbow=horizontal;html=1;rounded=0;fontColor=#FFFFFF;" edge="1" parent="38" source="39" target="42">
                    <mxGeometry relative="1" as="geometry"/>
                </mxCell>
                <mxCell id="44" value="User stories" style="swimlane;startSize=20;horizontal=0;childLayout=treeLayout;horizontalTree=1;resizable=0;containerType=tree;fontColor=#FFFFFF;fillColor=#000000;" vertex="1" parent="1">
                    <mxGeometry x="50" y="1310" width="660" height="519" as="geometry"/>
                </mxCell>
                <mxCell id="45" value="&lt;b&gt;INVEST Criteria&lt;/b&gt;" style="whiteSpace=wrap;html=1;fontColor=#FFFFFF;fillColor=#999999;" vertex="1" parent="44">
                    <mxGeometry x="40" y="239.25" width="100" height="40" as="geometry"/>
                </mxCell>
                <mxCell id="46" value="Independent" style="whiteSpace=wrap;html=1;fontColor=#FFFFFF;fillColor=#999999;fontStyle=1" vertex="1" parent="44">
                    <mxGeometry x="190" y="20" width="140" height="40" as="geometry"/>
                </mxCell>
                <mxCell id="47" value="" style="edgeStyle=elbowEdgeStyle;elbow=horizontal;html=1;rounded=0;fontColor=#FFFFFF;" edge="1" parent="44" source="45" target="46">
                    <mxGeometry relative="1" as="geometry"/>
                </mxCell>
                <mxCell id="50" value="" style="edgeStyle=elbowEdgeStyle;elbow=horizontal;html=1;rounded=0;fontColor=#FFFFFF;" edge="1" target="51" source="46" parent="44">
                    <mxGeometry relative="1" as="geometry">
                        <mxPoint x="190" y="854.175" as="sourcePoint"/>
                    </mxGeometry>
                </mxCell>
                <mxCell id="51" value="A story should be independent&amp;nbsp; to prevent problems with prioritization and planning" style="whiteSpace=wrap;html=1;fontColor=#FFFFFF;fillColor=#000000;fontStyle=1" vertex="1" parent="44">
                    <mxGeometry x="380" y="20" width="260" height="40" as="geometry"/>
                </mxCell>
                <mxCell id="52" value="" style="edgeStyle=elbowEdgeStyle;elbow=horizontal;html=1;rounded=0;fontColor=#FFFFFF;" edge="1" target="53" source="45" parent="44">
                    <mxGeometry relative="1" as="geometry">
                        <mxPoint x="190" y="854.175" as="sourcePoint"/>
                    </mxGeometry>
                </mxCell>
                <mxCell id="53" value="Negotiable" style="whiteSpace=wrap;html=1;fontColor=#FFFFFF;fillColor=#999999;fontStyle=1" vertex="1" parent="44">
                    <mxGeometry x="190" y="119.25" width="140" height="40" as="geometry"/>
                </mxCell>
                <mxCell id="54" value="" style="edgeStyle=elbowEdgeStyle;elbow=horizontal;html=1;rounded=0;fontColor=#FFFFFF;" edge="1" target="55" source="53" parent="44">
                    <mxGeometry relative="1" as="geometry">
                        <mxPoint x="190" y="934.175" as="sourcePoint"/>
                    </mxGeometry>
                </mxCell>
                <mxCell id="55" value="They are not written contracts but are used to stimulate discussion between customer and developers until there is a clear agreemet, they add collaboration" style="whiteSpace=wrap;html=1;fontColor=#FFFFFF;fillColor=#000000;fontStyle=1" vertex="1" parent="44">
                    <mxGeometry x="380" y="100" width="260" height="78.5" as="geometry"/>
                </mxCell>
                <mxCell id="56" value="" style="edgeStyle=elbowEdgeStyle;elbow=horizontal;html=1;rounded=0;fontColor=#FFFFFF;" edge="1" target="57" source="45" parent="44">
                    <mxGeometry relative="1" as="geometry">
                        <mxPoint x="190" y="934.175" as="sourcePoint"/>
                    </mxGeometry>
                </mxCell>
                <mxCell id="57" value="Valuable" style="whiteSpace=wrap;html=1;fontColor=#FFFFFF;fillColor=#999999;fontStyle=1" vertex="1" parent="44">
                    <mxGeometry x="190" y="218.5" width="140" height="40" as="geometry"/>
                </mxCell>
                <mxCell id="58" value="" style="edgeStyle=elbowEdgeStyle;elbow=horizontal;html=1;rounded=0;fontColor=#FFFFFF;" edge="1" target="59" source="57" parent="44">
                    <mxGeometry relative="1" as="geometry">
                        <mxPoint x="190" y="1031.4999999999998" as="sourcePoint"/>
                    </mxGeometry>
                </mxCell>
                <mxCell id="59" value="Story should provide value to users" style="whiteSpace=wrap;html=1;fontColor=#FFFFFF;fillColor=#999999;fontStyle=1" vertex="1" parent="44">
                    <mxGeometry x="380" y="218.5" width="260" height="40" as="geometry"/>
                </mxCell>
                <mxCell id="60" value="" style="edgeStyle=elbowEdgeStyle;elbow=horizontal;html=1;rounded=0;fontColor=#FFFFFF;" edge="1" target="61" source="45" parent="44">
                    <mxGeometry relative="1" as="geometry">
                        <mxPoint x="190" y="1031.5" as="sourcePoint"/>
                    </mxGeometry>
                </mxCell>
                <mxCell id="61" value="Estimatable" style="whiteSpace=wrap;html=1;fontColor=#FFFFFF;fillColor=#999999;fontStyle=1" vertex="1" parent="44">
                    <mxGeometry x="190" y="298.5" width="140" height="40" as="geometry"/>
                </mxCell>
                <mxCell id="62" value="" style="edgeStyle=elbowEdgeStyle;elbow=horizontal;html=1;rounded=0;fontColor=#FFFFFF;" edge="1" target="63" source="45" parent="44">
                    <mxGeometry relative="1" as="geometry">
                        <mxPoint x="190" y="1170.75" as="sourcePoint"/>
                    </mxGeometry>
                </mxCell>
                <mxCell id="63" value="Small" style="whiteSpace=wrap;html=1;fontColor=#FFFFFF;fillColor=#999999;fontStyle=1" vertex="1" parent="44">
                    <mxGeometry x="190" y="378.5" width="140" height="40" as="geometry"/>
                </mxCell>
                <mxCell id="64" value="" style="edgeStyle=elbowEdgeStyle;elbow=horizontal;html=1;rounded=0;fontColor=#FFFFFF;" edge="1" target="65" source="45" parent="44">
                    <mxGeometry relative="1" as="geometry">
                        <mxPoint x="190" y="1350" as="sourcePoint"/>
                    </mxGeometry>
                </mxCell>
                <mxCell id="65" value="Small" style="whiteSpace=wrap;html=1;fontColor=#FFFFFF;fillColor=#999999;fontStyle=1" vertex="1" parent="44">
                    <mxGeometry x="190" y="458.5" width="140" height="40" as="geometry"/>
                </mxCell>
            </root>
        </mxGraphModel>
    </diagram>
</mxfile>